<?xml version="1.0" encoding="iso-8859-1"?>
<!-- Generator: Adobe Illustrator 19.0.0, SVG Export Plug-In . SVG Version: 6.00 Build 0)  -->
<svg version="1.1" id="Capa_1" xmlns="http://www.w3.org/2000/svg" xmlns:xlink="http://www.w3.org/1999/xlink" x="0px" y="0px"
	 viewBox="0 0 490.667 490.667" style="enable-background:new 0 0 490.667 490.667;" xml:space="preserve">
<g>
	<g>
		<path d="M245.333,0C110.059,0,0,110.059,0,245.333s110.059,245.333,245.333,245.333s245.333-110.059,245.333-245.333
			S380.608,0,245.333,0z M386.219,290.219L267.968,408.469c-6.229,6.229-14.443,9.344-22.635,9.344s-16.405-3.115-22.635-9.344
			L104.448,290.219c-9.152-9.131-14.165-21.291-14.165-34.219c0-12.928,5.013-25.067,14.165-34.219
			c18.283-18.261,50.133-18.261,68.416,0L192,240.917V117.333C192,87.936,215.915,64,245.333,64s53.333,23.936,53.333,53.333
			v123.584l19.115-19.115c18.283-18.261,50.133-18.261,68.416,0c9.152,9.131,14.165,21.291,14.165,34.219
			C400.363,268.949,395.349,281.067,386.219,290.219z"/>
	</g>
</g>
<g>
</g>
<g>
</g>
<g>
</g>
<g>
</g>
<g>
</g>
<g>
</g>
<g>
</g>
<g>
</g>
<g>
</g>
<g>
</g>
<g>
</g>
<g>
</g>
<g>
</g>
<g>
</g>
<g>
</g>
</svg>
